<?xml version="1.0" encoding="UTF-8" standalone="no"?>
<!-- Created with Inkscape (http://www.inkscape.org/) -->

<svg
   xmlns:dc="http://purl.org/dc/elements/1.1/"
   xmlns:cc="http://creativecommons.org/ns#"
   xmlns:rdf="http://www.w3.org/1999/02/22-rdf-syntax-ns#"
   xmlns:svg="http://www.w3.org/2000/svg"
   xmlns="http://www.w3.org/2000/svg"
   xmlns:sodipodi="http://sodipodi.sourceforge.net/DTD/sodipodi-0.dtd"
   xmlns:inkscape="http://www.inkscape.org/namespaces/inkscape"
   width="300"
   height="500"
   viewBox="0 0 300.00001 500"
   id="svg5458"
   version="1.1"
   inkscape:version="0.91 r13725"
   sodipodi:docname="KeySci.svg">
  <defs
     id="defs5460" />
  <sodipodi:namedview
     id="base"
     pagecolor="#ffffff"
     bordercolor="#666666"
     borderopacity="1.0"
     inkscape:pageopacity="0.0"
     inkscape:pageshadow="2"
     inkscape:zoom="1.3383333"
     inkscape:cx="132.89149"
     inkscape:cy="287.49878"
     inkscape:document-units="px"
     inkscape:current-layer="layer13"
     showgrid="true"
     units="px"
     showguides="true"
     inkscape:guide-bbox="true"
     guidetolerance="10000"
     objecttolerance="10000"
     inkscape:window-width="1280"
     inkscape:window-height="897"
     inkscape:window-x="0"
     inkscape:window-y="0"
     inkscape:window-maximized="1"
     inkscape:snap-bbox="false"
     inkscape:bbox-paths="false"
     inkscape:bbox-nodes="false"
     inkscape:snap-bbox-edge-midpoints="false"
     inkscape:snap-bbox-midpoints="false">
    <inkscape:grid
       type="xygrid"
       id="grid6023" />
  </sodipodi:namedview>
  <metadata
     id="metadata5463">
    <rdf:RDF>
      <cc:Work
         rdf:about="">
        <dc:format>image/svg+xml</dc:format>
        <dc:type
           rdf:resource="http://purl.org/dc/dcmitype/StillImage" />
        <dc:title />
      </cc:Work>
    </rdf:RDF>
  </metadata>
  <g
     inkscape:label="Key"
     inkscape:groupmode="layer"
     id="layer1"
     transform="translate(0,-552.36216)"
     style="display:inline"
     sodipodi:insensitive="true">
    <path
       style="opacity:1;fill:#ff0000;fill-opacity:1;stroke:none;stroke-width:0;stroke-miterlimit:4;stroke-dasharray:none;stroke-opacity:1"
       d="m 230.74096,703.87165 c 0.38422,-1.03928 -0.195,-2.20465 -1.29916,-2.61301 -4.0252,-1.47569 -12.07536,-4.46685 -12.07536,-4.46685 l 0.69389,-1.87578 c 0,0 0,0 0.81588,-0.76441 l 1.04079,-2.81367 0.46898,0.17349 c 0.7794,0.2882 1.63893,-0.1071 1.9272,-0.88648 l 0.34733,-0.93772 c 0.2883,-0.77936 -0.10712,-1.63894 -0.88647,-1.92723 l -0.46894,-0.17345 13.69109,-37.01176 c 7.99885,1.25901 15.13545,-2.03539 17.35801,-8.01271 2.68248,-7.25176 -2.70126,-15.92633 -12.02494,-19.37527 -9.32368,-3.44898 -19.05656,-0.36618 -21.73907,6.88559 -2.20778,5.98587 1.06649,13.1358 7.96228,17.38725 l -13.68837,37.00447 -0.46897,-0.17347 c -0.7794,-0.28823 -1.63895,0.1071 -1.92724,0.88643 l -0.3463,0.93813 c -0.28821,0.77944 0.10711,1.63891 0.8864,1.92724 l 0.46898,0.17348 -1.04078,2.81372 0.122,1.11131 c -1.82169,4.93034 -4.01129,10.84408 -5.84028,15.78841 -0.51272,1.38553 0.18997,2.91285 1.57552,3.42537 l 2.50209,0.92598 c 1.00494,0.37144 2.07886,0.0976 2.79192,-0.60615 0.10949,0.0628 0.22316,0.12224 0.34614,0.16756 l 11.95808,4.42344 c 1.10412,0.40852 2.30251,-0.0994 2.68692,-1.13856 0.3842,-1.03921 -0.195,-2.20459 -1.29916,-2.61306 0,0 -4.57217,-1.69132 -6.44794,-2.38515 -0.93811,-0.34639 -0.59094,-1.28487 -0.59094,-1.28487 0,0 0.34721,-0.93774 1.28484,-0.59092 1.87578,0.69391 6.56521,2.42864 6.56521,2.42864 1.03918,0.3843 2.18522,-0.14269 2.56967,-1.18192 0.38418,-1.03924 -0.1427,-2.18519 -1.18192,-2.56962 l -6.56521,-2.42862 c -0.93811,-0.34631 -0.5909,-1.2848 -0.5909,-1.2848 0,0 0.34631,-0.93813 1.28477,-0.59105 1.87581,0.69386 6.44801,2.3852 6.44801,2.3852 1.10408,0.40841 2.30248,-0.0993 2.68687,-1.13853 z m 17.86138,-62.69747 c -1.91609,5.1798 -9.34807,7.2043 -16.59984,4.5218 -7.25173,-2.68248 -11.57715,-9.05619 -9.6611,-14.23597 1.91609,-5.17987 9.34809,-7.20431 16.59981,-4.52181 7.25178,2.68251 11.57719,9.05614 9.66113,14.23598 z"
       id="path6017"
       inkscape:connector-curvature="0"
       sodipodi:nodetypes="scccccsssscccscccssssccccsscssssscssssscssssssss" />
  </g>
  <g
     inkscape:groupmode="layer"
     id="layer3"
     inkscape:label="Pico"
     sodipodi:insensitive="true">
    <path
       style="fill:#000000;fill-rule:evenodd;stroke:none;stroke-width:1px;stroke-linecap:butt;stroke-linejoin:miter;stroke-opacity:1"
       d="m 178.83445,92.224331 c 0,0 31.07802,10.007919 45.05506,14.766299 9.74629,3.31807 13.82002,15.93761 13.82002,15.93761 l -49.97848,-1.77555 -17.27002,-12.31856 z"
       id="path6082"
       inkscape:connector-curvature="0"
       sodipodi:nodetypes="cscccc" />
  </g>
  <g
     inkscape:groupmode="layer"
     id="layer4"
     inkscape:label="Cresta"
     style="display:inline"
     sodipodi:insensitive="true">
    <path
       style="fill:#000000;fill-opacity:1;fill-rule:evenodd;stroke:#000000;stroke-width:1px;stroke-linecap:butt;stroke-linejoin:miter;stroke-opacity:1"
       d="m 177.68312,91.403104 -16.2877,-18.566386 -2.62878,2.46771 -13.4859,-7.882279 -0.32652,4.110157 -21.04609,-4.589338 0.99028,5.917717 -20.71199,3.465996 4.60532,3.284952 0.3301,1.972577 c 0,0 -1.47422,-0.112719 -1.97257,0.330093 -37.953998,33.726747 -40.071628,63.484367 -40.071628,63.484367 0,0 16.601807,-3.7921 52.816058,4.34241 29.01162,6.51666 55.0432,16.13652 55.0432,16.13652 0,0 -12.01652,-23.33672 10.82113,-44.39484 l -17.26997,-12.31852 c 9.19466,-17.761166 9.19466,-17.761166 9.19466,-17.761166 z"
       id="path6085"
       inkscape:connector-curvature="0"
       sodipodi:nodetypes="ccccccccccscscccc" />
  </g>
  <g
     inkscape:groupmode="layer"
     id="layer5"
     inkscape:label="Ojo"
     sodipodi:insensitive="true">
    <circle
       style="opacity:1;fill:#ececec;fill-opacity:1;stroke:#000000;stroke-width:0;stroke-miterlimit:4;stroke-dasharray:none;stroke-opacity:1"
       id="path6110"
       cx="143.66045"
       cy="122.97572"
       r="6.9999948"
       transform="matrix(0.9862856,-0.16504761,0.16504761,0.9862856,0,0)" />
    <ellipse
       style="opacity:1;fill:#000000;fill-opacity:1;stroke:#000000;stroke-width:0;stroke-miterlimit:4;stroke-dasharray:none;stroke-opacity:1"
       id="path6106"
       cx="143.66043"
       cy="122.97572"
       rx="5.4999967"
       ry="5.5"
       transform="matrix(0.9862856,-0.16504761,0.16504761,0.9862856,0,0)" />
  </g>
  <g
     inkscape:groupmode="layer"
     id="layer6"
     inkscape:label="Capa"
     sodipodi:insensitive="true">
    <path
       style="fill:#000000;fill-opacity:1;fill-rule:evenodd;stroke:none;stroke-width:1px;stroke-linecap:butt;stroke-linejoin:miter;stroke-opacity:1"
       d="m 188.58826,174.74625 c 0,0 -21.29013,-11.34614 -60.09044,-20.83131 -45.639149,-11.15699 -61.089616,-6.54366 -61.089616,-6.54366 0,0 -26.460675,11.52533 -23.030939,39.59422 6.043292,49.45809 21.295408,71.21185 21.295408,71.21185 0,0 22.600742,18.98646 108.704457,55.82417 8.71554,3.61107 13.15581,5.90972 13.15581,5.90972 29.72563,-46.54445 31.6862,-65.1228 31.6862,-65.1228"
       id="path6113"
       inkscape:connector-curvature="0"
       sodipodi:nodetypes="cscsccsc" />
  </g>
  <g
     inkscape:groupmode="layer"
     id="layer7"
     inkscape:label="Capa Lost"
     sodipodi:insensitive="true">
    <path
       style="fill:#000000;fill-opacity:1;fill-rule:evenodd;stroke:none;stroke-width:1px;stroke-linecap:butt;stroke-linejoin:miter;stroke-opacity:1"
       d="m 188.58826,174.74625 c 24.34704,24.31501 30.95694,75.93197 30.63088,80.04219 -1.08254,13.63999 -28.29622,-29.73765 -28.29622,-29.73765 0,0 -14.21212,-62.16642 -2.33466,-50.30454 z"
       id="path6116"
       inkscape:connector-curvature="0"
       sodipodi:nodetypes="sscs" />
  </g>
  <g
     inkscape:groupmode="layer"
     id="layer8"
     inkscape:label="Cuerpo"
     sodipodi:insensitive="true">
    <path
       style="fill:#000000;fill-opacity:1;fill-rule:evenodd;stroke:none;stroke-width:1px;stroke-linecap:butt;stroke-linejoin:miter;stroke-opacity:1"
       d="m 67.154101,260.97116 c 0,0 3.502225,9.59576 15.250302,31.98224 7.796353,14.85634 17.341091,29.48156 17.341091,29.48156 1.603326,2.72577 26.484686,24.97127 91.579556,14.07812 13.94815,-2.33412 38.07559,-12.54813 38.94828,-21.7263 1.46939,-15.45447 -9.57277,-57.20457 -9.57277,-57.20457 0,0 -8.43538,26.84304 -26.18508,55.58412 -1.78097,2.88384 -6.65246,8.71749 -6.65246,8.71749 0,0 -50.11337,-22.06679 -80.16867,-36.77264 -14.084872,-6.89164 -40.540249,-24.14002 -40.540249,-24.14002 z"
       id="path6119"
       inkscape:connector-curvature="0"
       sodipodi:nodetypes="csssscscsc" />
  </g>
  <g
     inkscape:groupmode="layer"
     id="layer2"
     inkscape:label="Cola Centro"
     sodipodi:insensitive="true">
    <path
       style="fill:#000000;fill-opacity:1;fill-rule:evenodd;stroke:none;stroke-width:1px;stroke-linecap:butt;stroke-linejoin:miter;stroke-opacity:1"
       d="m 166.66791,340.63927 c 0,0 16.01565,-1.07079 23.91842,-2.48172 6.26918,-1.11928 18.49185,-4.61532 18.49185,-4.61532 0,0 0.60191,9.86705 1.16332,19.06948 1.16334,19.06955 -0.97034,24.49609 -0.97034,24.49609 0,0 -6.57385,3.12791 -26.15054,-16.91582 -17.05792,-17.46506 -16.45274,-19.55272 -16.45274,-19.55272 z"
       id="path4150"
       inkscape:connector-curvature="0"
       sodipodi:nodetypes="cscscsc" />
  </g>
  <g
     inkscape:groupmode="layer"
     id="layer9"
     inkscape:label="Cola Interna 1"
     sodipodi:insensitive="true">
    <path
       style="fill:#000000;fill-opacity:0.8156682;fill-rule:evenodd;stroke:none;stroke-width:1px;stroke-linecap:butt;stroke-linejoin:miter;stroke-opacity:1"
       d="m 164.69533,340.96937 c 0,0 10.366,13.47387 17.60409,20.37389 5.12947,4.88987 10.24959,9.91665 15.46245,13.63496 4.60535,3.28494 11.83945,4.10218 11.83945,4.10218 0,0 3.44617,-9.70177 2.12163,-23.6749 -0.69484,-7.33067 -1.74104,-22.52148 -1.74104,-22.52148 l 5.58763,-2.96284 c 0,0 3.0119,22.3639 3.55654,33.37064 0.38462,7.77222 1.16333,19.06954 0.89023,29.55528 -0.44222,16.96462 -2.00951,18.28559 -2.00951,18.28559 0,0 -4.50389,0.26163 -14.30716,-6.73098 -12.66465,-9.03361 -19.2029,-17.4713 -27.80103,-26.77872 -23.52582,-25.46639 -28.46524,-36.80668 -28.46524,-36.80668"
       id="path4153"
       inkscape:connector-curvature="0"
       sodipodi:nodetypes="csscsccsscssc" />
  </g>
  <g
     inkscape:groupmode="layer"
     id="layer10"
     inkscape:label="Cola Interna 2"
     style="display:inline"
     sodipodi:insensitive="true">
    <path
       style="fill:#000000;fill-opacity:1;fill-rule:evenodd;stroke:none;stroke-width:1px;stroke-linecap:butt;stroke-linejoin:miter;stroke-opacity:1"
       d="m 144.30943,340.32516 -14.46819,-1.63443 c 0,0 2.30662,7.72521 38.17502,52.41812 9.9535,12.40236 20.39787,24.55239 32.24536,35.16022 23.8519,21.35615 29.1094,16.42077 29.1094,16.42077 0,0 2.46371,-3.45401 0.96203,-36.66164 -0.53034,-11.73064 -0.91888,-23.47309 -1.83148,-35.18015 -2.65279,-34.02888 -4.46829,-44.87799 -4.46829,-44.87799 l -6.57391,3.12788 c 0,0 2.68226,24.65559 3.31296,37.97397 2.00054,42.24923 -1.6145,44.88204 -1.6145,44.88204 0,0 -4.60134,2.79777 -16.77284,-6.31837 -4.68845,-3.5115 -5.28353,-4.31969 -7.17171,-5.89721 -1.88817,-1.5775 -4.0135,-3.38397 -11.41667,-11.27026 -18.42863,-19.63126 -26.84007,-30.77686 -30.27277,-35.49028 z"
       id="path4154"
       inkscape:connector-curvature="0"
       sodipodi:nodetypes="ccsscssccscssssc" />
  </g>
  <g
     inkscape:groupmode="layer"
     id="layer11"
     inkscape:label="Cola Externa"
     style="display:inline"
     sodipodi:insensitive="true">
    <path
       style="opacity:1;fill:#000000;fill-opacity:1;fill-rule:evenodd;stroke:none;stroke-width:1px;stroke-linecap:butt;stroke-linejoin:miter;stroke-opacity:1"
       d="m 126.55228,337.21326 c 0.17239,0.065 -4.71255,-0.86931 -10.68808,-3.28094 -5.50375,-2.2207 -15.62355,-8.53845 -15.62355,-8.53845 0,0 20.57496,38.12704 54.47074,83.1501 15.19738,20.18625 30.5645,40.60084 49.19323,57.67169 29.93871,27.43495 39.14135,21.83933 39.14135,21.83933 0,0 2.6288,-2.46774 2.28667,-22.68857 -0.24805,-14.66231 -0.70676,-35.9478 -2.17763,-61.48381 -2.66076,-46.19434 -10.90915,-89.4259 -10.90915,-89.4259 0,0 -0.65609,2.13764 -3.11987,5.59163 l -3.28496,4.60534 c 0,0 4.74554,43.89061 5.96171,65.9201 2.4957,45.20809 -1.06585,54.21949 -1.06585,54.21949 0,0 -14.51368,4.15244 -57.02635,-44.49821 -19.56635,-22.39129 -47.15828,-63.08177 -47.15828,-63.08177 z"
       id="path4156"
       inkscape:connector-curvature="0"
       sodipodi:nodetypes="cscsscsscscscsc" />
  </g>
  <g
     inkscape:groupmode="layer"
     id="layer12"
     inkscape:label="Pata"
     sodipodi:insensitive="true">
    <path
       style="fill:#000000;fill-opacity:1;fill-rule:evenodd;stroke:none;stroke-width:1px;stroke-linecap:butt;stroke-linejoin:miter;stroke-opacity:1"
       d="m 118.67601,359.8233 1.97453,2.71128 c 0,0 0.16503,0.98629 -1.64053,5.34406 -0.68709,1.65832 -1.07527,3.36386 -0.65417,5.17897 0.27166,1.17076 0.71212,2.0732 1.48141,2.79385 0.87717,0.82157 3.28894,1.47739 3.28894,1.47739 l 7.23413,0.8172 5.183,6.73694 c 0,0 -8.05533,0.33408 -14.30317,-0.64823 -1.47262,-0.2315 -2.98262,-1.04305 -4.35774,-1.80549 -0.82459,-0.45717 -1.42984,-1.28598 -2.30267,-1.64252 -0.97581,-0.39863 -2.11653,-0.80157 -3.1239,-0.49113 -1.14854,0.35398 -1.55176,1.93434 -2.62877,2.46772 -1.49356,0.73962 -4.93142,0.82523 -4.93142,0.82523 0,0 -11.62355,-1.3017 -17.262034,-0.15256 -1.346684,0.27437 -3.780081,1.64649 -3.780081,1.64649 0,0 -1.813958,0.015 -2.137617,-0.65609 -0.843985,-1.7509 2.133626,-5.42662 2.133626,-5.42662 0,0 1.52066,-2.00229 2.628741,-2.46768 2.477758,-1.04064 5.371811,-0.1896 8.055345,-0.33411 3.345116,-0.18011 6.88802,0.74464 10.11043,-0.17101 2.02791,-0.57619 4.86929,-1.38474 5.50509,-3.45599 1.31231,-4.27531 2.78978,-7.56422 2.78978,-7.56422 l 4.4323,-9.86684"
       id="path4159"
       inkscape:connector-curvature="0"
       sodipodi:nodetypes="ccssscccssssscscscsssscc" />
  </g>
  <g
     inkscape:groupmode="layer"
     id="layer13"
     inkscape:label="Plumas">
    <path
       style="fill:#000000;fill-opacity:0.79262671;fill-rule:evenodd;stroke:none;stroke-width:1px;stroke-linecap:butt;stroke-linejoin:miter;stroke-opacity:1"
       d="m 44,206 8,22 0,44 -8,9 z"
       id="path4162"
       inkscape:connector-curvature="0"
       sodipodi:nodetypes="ccccc" />
    <path
       style="fill:#000000;fill-opacity:1;fill-rule:evenodd;stroke:none;stroke-width:1px;stroke-linecap:butt;stroke-linejoin:miter;stroke-opacity:1"
       d="m 53,235 8,16 0,34 -8,9 z"
       id="path4161"
       inkscape:connector-curvature="0"
       sodipodi:nodetypes="ccccc" />
    <path
       style="fill:#000000;fill-opacity:1;fill-rule:evenodd;stroke:none;stroke-width:1px;stroke-linecap:butt;stroke-linejoin:miter;stroke-opacity:1"
       d="m 70,269 0,39 -8,8 0,-62"
       id="path4163"
       inkscape:connector-curvature="0"
       sodipodi:nodetypes="cccc" />
    <path
       style="fill:#000000;fill-opacity:1;fill-rule:evenodd;stroke:none;stroke-width:1px;stroke-linecap:butt;stroke-linejoin:miter;stroke-opacity:1"
       d="m 71,272 8,15 0,34 -8,7 z"
       id="path4165"
       inkscape:connector-curvature="0"
       sodipodi:nodetypes="ccccc" />
    <path
       style="fill:#000000;fill-opacity:1;fill-rule:evenodd;stroke:none;stroke-width:1px;stroke-linecap:butt;stroke-linejoin:miter;stroke-opacity:1"
       d="m 80,293 8,11 0,26 -8,8 z"
       id="path4167"
       inkscape:connector-curvature="0"
       sodipodi:nodetypes="ccccc" />
    <path
       style="fill:#000000;fill-opacity:1;fill-rule:evenodd;stroke:none;stroke-width:1px;stroke-linecap:butt;stroke-linejoin:miter;stroke-opacity:1"
       d="m 89,309 8,11 0,5 -8,8 z"
       id="path4169"
       inkscape:connector-curvature="0"
       sodipodi:nodetypes="ccccc" />
    <path
       style="fill:#000000;fill-opacity:1;fill-rule:evenodd;stroke:none;stroke-width:1px;stroke-linecap:butt;stroke-linejoin:miter;stroke-opacity:1"
       d="m 98,326.96925 3.5,4 L 98,335 Z"
       id="path4171"
       inkscape:connector-curvature="0"
       sodipodi:nodetypes="cccc" />
  </g>
</svg>
