<?xml version="1.0" encoding="UTF-8" standalone="no"?>
<svg
   xmlns:dc="http://purl.org/dc/elements/1.1/"
   xmlns:cc="http://creativecommons.org/ns#"
   xmlns:rdf="http://www.w3.org/1999/02/22-rdf-syntax-ns#"
   xmlns:svg="http://www.w3.org/2000/svg"
   xmlns="http://www.w3.org/2000/svg"
   xmlns:sodipodi="http://sodipodi.sourceforge.net/DTD/sodipodi-0.dtd"
   xmlns:inkscape="http://www.inkscape.org/namespaces/inkscape"
   version="1.1"
   id="svg2"
   width="666.66669"
   height="482.66666"
   viewBox="0 0 666.66669 482.66666"
   sodipodi:docname="SIC.png.svg"
   inkscape:version="1.0 (6e3e5246a0, 2020-05-07)">
  <metadata
     id="metadata8">
    <rdf:RDF>
      <cc:Work
         rdf:about="">
        <dc:format>image/svg+xml</dc:format>
        <dc:type
           rdf:resource="http://purl.org/dc/dcmitype/StillImage" />
        <dc:title />
      </cc:Work>
    </rdf:RDF>
  </metadata>
  <defs
     id="defs6">
    <rect
       x="29.278268"
       y="20.118526"
       width="923.78502"
       height="1688.8569"
       id="rect972" />
    <rect
       x="281.26083"
       y="165.22324"
       width="286.92614"
       height="141.42963"
       id="rect957" />
    <rect
       x="344.89411"
       y="294.94034"
       width="177.12321"
       height="36.86338"
       id="rect921" />
    <rect
       x="5.4498621"
       y="402.17319"
       width="696.57588"
       height="119.6858"
       id="rect901" />
    <rect
       x="25.530211"
       y="332.58653"
       width="792.12087"
       height="74.560011"
       id="rect840" />
    <filter
       height="1.0000021"
       y="-1.0299368e-06"
       width="1.0000029"
       x="-1.4373324e-06"
       id="filter984"
       style="color-interpolation-filters:sRGB"
       inkscape:collect="always">
      <feGaussianBlur
         id="feGaussianBlur986"
         stdDeviation="0.00011617687"
         inkscape:collect="always" />
    </filter>
  </defs>
  <sodipodi:namedview
     inkscape:guide-bbox="true"
     showguides="true"
     inkscape:document-rotation="0"
     pagecolor="#ffffff"
     bordercolor="#666666"
     borderopacity="1"
     objecttolerance="10"
     gridtolerance="10"
     guidetolerance="10"
     inkscape:pageopacity="0"
     inkscape:pageshadow="2"
     inkscape:window-width="1920"
     inkscape:window-height="1017"
     id="namedview4"
     showgrid="false"
     inkscape:zoom="2.8284271"
     inkscape:cx="326.60433"
     inkscape:cy="132.38593"
     inkscape:window-x="0"
     inkscape:window-y="0"
     inkscape:window-maximized="1"
     inkscape:current-layer="layer6">
    <sodipodi:guide
       id="guide1002"
       orientation="1,0"
       position="343.13855,333.40483" />
    <sodipodi:guide
       id="guide1004"
       orientation="1,0"
       position="376.94505,337.15091" />
  </sodipodi:namedview>
  <g
     sodipodi:insensitive="true"
     style="display:inline"
     inkscape:groupmode="layer"
     id="layer1"
     inkscape:label="Text &gt; Industria">
    <g
       style="font-style:normal;font-weight:normal;font-size:64px;line-height:125%;font-family:sans-serif;letter-spacing:-3px;word-spacing:0px;white-space:pre;shape-inside:url(#rect840);fill:#00376a;fill-opacity:1;stroke:none;stroke-width:1px;stroke-linecap:butt;stroke-linejoin:miter;stroke-opacity:1"
       id="text838"
       aria-label="Industria y Comercio">
      <path
         id="path877"
         style="font-style:normal;font-variant:normal;font-weight:bold;font-stretch:normal;font-family:'URW Bookman L';-inkscape-font-specification:'URW Bookman L Bold'"
         d="m 32.697297,378.83853 c 0,2.432 -0.192,3.392 -0.768,4.032 -0.576,0.704 -2.048,1.216 -3.584,1.344 l -1.536,0.128 v 5.248 h 22.976 v -5.248 l -1.536,-0.128 c -1.536,-0.128 -3.008,-0.64 -3.584,-1.344 -0.576,-0.64 -0.768,-1.6 -0.768,-4.032 v -22.08 c 0,-2.432 0.192,-3.392 0.768,-4.032 0.576,-0.704 2.048,-1.216 3.584,-1.344 l 1.536,-0.128 v -5.248 h -22.976 v 5.248 l 1.536,0.128 c 1.536,0.128 3.008,0.64 3.584,1.344 0.576,0.64 0.768,1.6 0.768,4.032 z" />
      <path
         sodipodi:nodetypes="cccccssccccccscsssccccccsscscc"
         id="path879"
         style="font-style:normal;font-variant:normal;font-weight:bold;font-stretch:normal;font-family:'URW Bookman L';-inkscape-font-specification:'URW Bookman L Bold'"
         d="m 65.714,357.46253 h -3.968 l -9.984,1.856 v 5.184 l 1.152,0.128 c 2.816,0.32 3.52,1.344 3.52,5.248 v 9.216 c 0,3.648 -0.384,4.288 -2.816,4.864 l -1.856,0.448 v 5.184 H 70.77 v -5.184 l -1.152,-0.32 c -2.432,-0.704 -2.816,-1.344 -2.816,-4.992 v -12.48 c 2.56,-1.728 5.376,-2.816 7.296,-2.816 1.92,0 2.88,1.408 2.88,4.096 v 11.2 c 0,3.648 -0.384,4.288 -2.816,4.992 l -1.152,0.32 v 5.184 h 19.072 v -5.184 l -1.92,-0.448 c -2.432,-0.576 -2.816,-1.216 -2.816,-4.864 v -12.032 c 0,-3.456 -0.576,-5.248 -2.368,-7.168 -1.92,-2.112 -4.16,-3.008 -7.616,-3.008 -4.032,0 -7.488,1.024 -11.648,3.328 z" />
      <path
         id="path881"
         style="font-style:normal;font-variant:normal;font-weight:bold;font-stretch:normal;font-family:'URW Bookman L';-inkscape-font-specification:'URW Bookman L Bold'"
         d="m 123.5343,343.25453 h -3.392 c -3.84,1.408 -8.448,2.496 -11.648,2.752 v 5.184 l 0.896,0.128 c 3.2,0.448 3.776,1.28 3.776,5.184 v 2.24 c -2.176,-1.216 -4.8,-1.856 -7.36,-1.856 -8.576003,0 -15.168003,7.36 -15.168003,17.024 0,5.504 2.24,10.496 6.144,13.504 2.432,1.92 4.992003,2.752 8.512003,2.752 3.712,0 6.464,-0.96 8.832,-3.008 v 2.432 h 14.336 v -5.184 l -2.112,-0.448 c -2.432,-0.512 -2.816,-1.152 -2.816,-4.864 z m -10.368,37.504 c -1.408,1.664 -3.712,2.688 -5.76,2.688 -3.456,0 -5.888,-3.904 -5.888,-9.408 0,-6.208 2.56,-10.24 6.528,-10.24 1.92,0 3.648,0.64 5.12,1.856 z" />
      <path
         id="path883"
         style="font-style:normal;font-variant:normal;font-weight:bold;font-stretch:normal;font-family:'URW Bookman L';-inkscape-font-specification:'URW Bookman L Bold'"
         d="m 163.6463,357.46253 h -3.968 l -11.072,1.856 v 5.184 l 1.152,0.128 c 2.816,0.32 3.52,1.344 3.52,5.248 v 10.88 c -3.008,1.792 -4.928,2.432 -6.976,2.432 -2.56,0 -3.2,-0.896 -3.2,-4.608 v -21.12 h -3.968 l -11.072,1.856 v 5.184 l 1.152,0.128 c 2.816,0.32 3.52,1.344 3.52,5.248 v 8.896 c 0,5.12 0.704,7.296 2.944,9.28 1.856,1.536 4.416,2.368 7.488,2.368 4.16,0 6.912,-0.832 11.2,-3.328 v 2.496 h 14.08 v -5.184 l -1.984,-0.448 c -2.432,-0.576 -2.816,-1.216 -2.816,-4.864 z" />
      <path
         sodipodi:nodetypes="cccssccssccccccsscscssccc"
         id="path885"
         style="font-style:normal;font-variant:normal;font-weight:bold;font-stretch:normal;font-family:'URW Bookman L';-inkscape-font-specification:'URW Bookman L Bold';letter-spacing:-3.5px"
         d="m 192.372,357.46253 h -4.032 l -0.768,1.536 c -3.328,-1.6 -3.7477,-2.112 -6.6917,-2.112 -7.552,0 -11.2563,4.672 -11.2563,11.136 0,5.248 3.584,8.576 10.24,9.472 l 2.2963,0.512 c 3.968,0.576 4.1317,1.408 4.1317,2.944 0,1.472 -0.9317,2.688 -4.0677,2.688 -2.56,0 -3.5123,-0.96 -5.3043,-2.56 -0.768,-0.64 -1.28,-1.28 -2.88,-3.072 l -4.928,1.024 2.56,10.816 h 4.224 l 0.768,-1.6 c 3.264,1.472 3.5763,1.92 6.5843,1.92 7.936,0 12.6437,-5.056 12.6437,-11.52 0,-2.496 -0.896,-4.8 -2.624,-6.4 -1.728,-1.728 -3.15973,-1.92043 -7.872,-3.2 l -3.2997,-0.896 c -3.584,-0.64 -3.1923,-1.472 -3.1923,-2.88 0,-1.408 0.0563,-2.496 2.6163,-2.496 3.264,0 4.3877,1.6 6.8197,4.928 l 5.248,-0.768 z" />
      <path
         sodipodi:nodetypes="ccccccccscsccsccc"
         id="path887"
         style="font-style:normal;font-variant:normal;font-weight:bold;font-stretch:normal;font-family:'URW Bookman L';-inkscape-font-specification:'URW Bookman L Bold';letter-spacing:-3.5px"
         d="m 216.362,362.90253 v -5.44 h -6.868 v -10.176 h -6.016 c -0.64,6.592 -3.648,10.112 -9.216,10.88 v 5.056 h 4.864 v 16.192 c 0,3.904 0.256,5.44 1.024,6.976 1.408,2.496 3.968,3.776 7.68,3.776 5.76,0 7.892,-1.92 11.604,-6.4 l -3.84,-4.544 c -2.816,2.752 -4.45773,3.90425 -5.47503,3.45371 -0.74084,-0.32811 -0.62497,-4.28571 -0.62497,-4.28571 v -15.488 z" />
      <path
         sodipodi:nodetypes="cccccssccccccscscssscc"
         id="path889"
         style="font-style:normal;font-variant:normal;font-weight:bold;font-stretch:normal;font-family:'URW Bookman L';-inkscape-font-specification:'URW Bookman L Bold';letter-spacing:-3.5px"
         d="m 233.814,357.46253 h -3.968 l -9.984,1.856 v 5.184 l 1.152,0.128 c 2.816,0.32 3.52,1.344 3.52,5.248 v 9.216 c 0,3.648 -0.384,4.288 -2.816,4.864 l -1.856,0.448 v 5.184 h 19.712 v -5.184 l -1.856,-0.448 c -2.432,-0.576 -2.816,-1.216 -2.816,-4.864 v -12.416 c 0.1616,-0.40286 0.336,-1.024 1.36,-1.024 0.768,0 0.768,0 2.24,0.96 1.152,0.768 2.048,1.024 3.264,1.024 2.88,0 5.056,-2.048 5.056,-4.864 0,-3.328 -2.496,-5.888 -5.76,-5.888 -2.624,0 -3.024,0.704 -7.248,3.712 z" />
      <path
         sodipodi:nodetypes="cccccssccccccscsssss"
         id="path891"
         style="font-style:normal;font-variant:normal;font-weight:bold;font-stretch:normal;font-family:'URW Bookman L';-inkscape-font-specification:'URW Bookman L Bold';letter-spacing:-3.5px"
         d="m 263.194,357.46253 h -3.968 l -11.264,1.856 v 5.184 l 1.344,0.128 c 2.752,0.256 3.52,1.344 3.52,5.248 v 9.216 c 0,3.648 -0.384,4.352 -2.816,4.864 l -2.048,0.448 v 5.184 h 20.032 v -5.184 l -1.984,-0.448 c -2.432,-0.576 -2.816,-1.216 -2.816,-4.864 z m -5.568,-14.592 c -3.392,0 -6.336,2.88 -6.336,6.272 0,3.392 2.688,6.144 6.08,6.144 3.456,0 6.336,-2.88 6.336,-6.336 0,-3.392 -2.624,-6.08 -6.08,-6.08 z" />
      <path
         id="path893"
         style="font-style:normal;font-variant:normal;font-weight:bold;font-stretch:normal;font-family:'URW Bookman L';-inkscape-font-specification:'URW Bookman L Bold';letter-spacing:-3.5px"
         d="m 301.2023,382.55053 c -0.128,0.128 -0.256,0.256 -0.448,0.384 -0.512,0.512 -0.832,0.704 -1.152,0.704 -0.448,0 -0.96,-0.32 -1.088,-0.704 -0.192,-0.448 -0.192,-0.448 -0.256,-2.88 v -12.608 c 0,-3.392 -0.704,-5.44 -2.432,-7.104 -2.24,-2.176 -6.528,-3.456 -11.52,-3.456 -8.256,0 -14.208,3.712 -14.208,8.832 0,2.688 2.048,4.8 4.736,4.8 1.536,0 3.136,-0.64 4.032,-1.728 0.64,-0.768 0.896,-1.664 0.896,-3.2 0,-0.896 0.192,-1.344 0.576,-1.664 0.768,-0.704 2.176,-1.152 3.52,-1.152 2.752,0 4.032,1.152 4.032,3.456 v 3.264 c -3.52,0.32 -6.592,0.896 -9.344,1.728 -6.4,1.92 -9.6,5.312 -9.6,10.176 0,5.248 4.096,8.768 10.176,8.768 3.584,0 6.976,-1.088 10.176,-3.264 1.536,1.984 4.416,3.264 7.36,3.264 2.88,0 5.248,-0.96 8.128,-3.264 z m -13.312,-1.536 c -1.664,1.536 -3.264,2.24 -5.056,2.24 -1.792,0 -3.008,-1.28 -3.008,-3.2 0,-2.688 2.496,-4.416 8.064,-5.44 z" />
      <path
         id="path895"
         style="font-style:normal;font-variant:normal;font-weight:bold;font-stretch:normal;font-family:'URW Bookman L';-inkscape-font-specification:'URW Bookman L Bold';letter-spacing:-6px"
         d="m 337.5853,377.62253 -4.736,-12.032 c -0.128,-0.448 -0.256,-0.896 -0.256,-1.28 0,-1.152 1.024,-1.6 3.52,-1.6 h 0.704 v -5.248 h -19.904 v 5.248 l 1.024,0.128 c 2.432,0.448 3.008,1.024 4.544,4.608 l 9.664,21.824 c -1.344,2.944 -3.584,5.952 -4.352,5.952 -0.256,0 -0.576,-0.192 -0.896,-0.512 -1.472,-1.344 -2.624,-1.856 -4.224,-1.856 -2.88,0 -5.056,2.24 -5.056,5.248 0,3.328 2.816,5.632 6.912,5.632 3.52,0 7.04,-1.664 9.28,-4.416 1.408,-1.664 1.792,-2.432 3.776,-6.72 l 11.008,-23.744 c 1.984,-4.16 3.072,-5.184 6.4,-6.016 l 0.768,-0.128 v -5.248 h -17.088 v 5.248 h 0.768 c 1.984,0 2.944,0.576 2.944,1.792 0,0.384 -0.064,0.832 -0.256,1.216 z" />
      <path
         sodipodi:nodetypes="ccscssccccccscsscc"
         id="path897"
         style="font-style:normal;font-variant:normal;font-weight:bold;font-stretch:normal;font-family:'URW Bookman L';-inkscape-font-specification:'URW Bookman L Bold';letter-spacing:-6px"
         d="m 404.292,374.16653 c -1.856,3.136 -3.2,4.992 -4.8,6.4 -2.624,2.432 -6.272,3.968 -9.472,3.968 -2.56,0 -5.248,-1.024 -7.296,-2.816 -3.328,-2.944 -4.992,-7.616 -4.992,-14.016 0,-10.624 4.352,-17.28 11.264,-17.28 3.136,0 6.144,1.536 9.088,4.544 1.536,1.664 2.432,3.008 5.312,8 l 4.928,-1.856 -5.376,-15.104 h -4.416 l -0.512,1.472 c -3.072,-1.472 -6.912,-2.304 -10.688,-2.304 -5.248,0 -9.856,1.408 -13.504,4.16 -5.248,4.032 -8.384,10.816 -8.384,18.432 0,13.184 9.6,22.656 22.976,22.656 9.664,0 18.048,-5.376 21.12,-13.568 z" />
      <path
         sodipodi:nodetypes="ssssssssss"
         id="path899"
         style="font-style:normal;font-variant:normal;font-weight:bold;font-stretch:normal;font-family:'URW Bookman L';-inkscape-font-specification:'URW Bookman L Bold';letter-spacing:-6px"
         d="m 426.6713,356.88653 c -10.368,0 -17.408,6.528 -17.408,16.192 0,10.496 6.848,17.088 17.728,17.088 10.752,0 17.7277,-6.464 17.7277,-16.448 0,-10.304 -7.0397,-16.832 -18.0477,-16.832 z m 0.384,6.528 c 4.032,0 6.0157,3.52 6.0157,10.56 0,6.528 -2.1117,9.984 -6.0157,9.984 -4.032,0 -6.144,-3.456 -6.144,-10.112 0,-6.912 2.048,-10.432 6.144,-10.432 z" />
      <path
         id="path901"
         style="font-style:normal;font-variant:normal;font-weight:bold;font-stretch:normal;font-family:'URW Bookman L';-inkscape-font-specification:'URW Bookman L Bold';letter-spacing:-6px"
         d="m 457.6083,366.03853 c 2.432,-1.6 5.376,-2.624 7.36,-2.624 1.984,0 2.816,1.152 2.816,3.776 v 11.904 c 0,3.648 -0.384,4.288 -2.816,4.992 l -1.152,0.32 v 5.184 h 18.304 v -5.184 l -1.152,-0.32 c -2.432,-0.704 -2.816,-1.344 -2.816,-4.992 v -13.056 c 2.048,-1.28 4.992,-2.24 6.656,-2.24 2.176,0 3.52,1.408 3.52,3.648 v 11.648 c 0,3.648 -0.384,4.288 -2.816,4.992 l -1.152,0.32 v 5.184 h 19.264 v -5.184 l -2.112,-0.448 c -2.368,-0.512 -2.816,-1.216 -2.816,-4.864 v -12.416 c 0,-3.2 -0.448,-4.736 -1.92,-6.464 -1.984,-2.24 -4.672,-3.328 -8.32,-3.328 -4.224,0 -8.32,1.152 -11.904,3.328 -2.304,-2.176 -5.248,-3.328 -8.64,-3.328 -4.288,0 -8.128,1.024 -11.392,2.944 v -2.368 h -3.968 l -10.24,1.856 v 5.184 l 1.408,0.128 c 2.752,0.256 3.52,1.408 3.52,5.248 v 9.216 c 0,3.648 -0.448,4.352 -2.816,4.864 l -2.112,0.448 v 5.184 h 19.264 v -5.184 l -1.152,-0.32 c -2.432,-0.704 -2.816,-1.344 -2.816,-4.992 z" />
      <path
         id="path903"
         style="font-style:normal;font-variant:normal;font-weight:bold;font-stretch:normal;font-family:'URW Bookman L';-inkscape-font-specification:'URW Bookman L Bold';letter-spacing:-6px"
         d="m 533.2083,373.33453 c 0,-4.544 -0.448,-7.168 -1.664,-9.344 -2.496,-4.416 -7.68,-7.104 -13.824,-7.104 -9.856,0 -16.832,6.848 -16.832,16.512 0,9.728 7.296,16.768 17.408,16.768 4.864,0 9.28,-1.728 12.096,-4.8 1.216,-1.28 1.984,-2.304 3.584,-4.928 l -5.376,-2.624 c -2.496,3.712 -5.12,5.44 -8.384,5.44 -4.992,0 -7.808,-3.648 -7.744,-9.92 z m -20.352,-4.928 c 0.192,-3.52 1.92,-5.632 4.8,-5.632 2.88,0 4.096,1.6 4.224,5.632 z" />
      <path
         id="path905"
         style="font-style:normal;font-variant:normal;font-weight:bold;font-stretch:normal;font-family:'URW Bookman L';-inkscape-font-specification:'URW Bookman L Bold';letter-spacing:-6px"
         d="m 545.3893,357.46253 h -3.968 l -9.984,1.856 v 5.184 l 1.152,0.128 c 2.816,0.32 3.52,1.344 3.52,5.248 v 9.216 c 0,3.648 -0.384,4.288 -2.816,4.864 l -1.856,0.448 v 5.184 h 19.712 v -5.184 l -1.856,-0.448 c -2.432,-0.576 -2.816,-1.216 -2.816,-4.864 v -12.416 c 0.896,-0.768 1.536,-1.024 2.56,-1.024 0.768,0 0.768,0 2.24,0.96 1.152,0.768 2.048,1.024 3.264,1.024 2.88,0 5.056,-2.048 5.056,-4.864 0,-3.328 -2.496,-5.888 -5.76,-5.888 -2.624,0 -4.224,0.704 -8.448,3.712 z" />
      <path
         id="path907"
         style="font-style:normal;font-variant:normal;font-weight:bold;font-stretch:normal;font-family:'URW Bookman L';-inkscape-font-specification:'URW Bookman L Bold';letter-spacing:-6px"
         d="m 583.5453,377.68653 c -2.304,4.16 -5.312,6.272 -9.024,6.272 -4.608,0 -7.616,-4.352 -7.616,-11.008 0,-6.464 2.24,-10.176 6.144,-10.176 1.92,0 3.648,1.216 3.648,2.56 l -0.064,1.856 c 0,2.24 2.56,4.352 5.312,4.352 3.008,0 5.312,-2.24 5.312,-5.248 0,-5.248 -6.272,-9.408 -14.208,-9.408 -10.624,0 -17.536,6.592 -17.536,16.64 0,9.856 6.976,16.64 17.088,16.64 7.616,0 13.568,-3.648 16.128,-9.792 z" />
      <path
         id="path909"
         style="font-style:normal;font-variant:normal;font-weight:bold;font-stretch:normal;font-family:'URW Bookman L';-inkscape-font-specification:'URW Bookman L Bold';letter-spacing:-6px"
         d="m 601.2943,357.46253 h -3.968 l -11.264,1.856 v 5.184 l 1.344,0.128 c 2.752,0.256 3.52,1.344 3.52,5.248 v 9.216 c 0,3.648 -0.384,4.352 -2.816,4.864 l -2.048,0.448 v 5.184 h 20.032 v -5.184 l -1.984,-0.448 c -2.432,-0.576 -2.816,-1.216 -2.816,-4.864 z m -5.568,-14.592 c -3.392,0 -6.336,2.88 -6.336,6.272 0,3.392 2.688,6.144 6.08,6.144 3.456,0 6.336,-2.88 6.336,-6.336 0,-3.392 -2.624,-6.08 -6.08,-6.08 z" />
      <path
         id="path911"
         style="font-style:normal;font-variant:normal;font-weight:bold;font-stretch:normal;font-family:'URW Bookman L';-inkscape-font-specification:'URW Bookman L Bold';letter-spacing:-6px"
         d="m 621.0463,356.88653 c -10.368,0 -17.408,6.528 -17.408,16.192 0,10.496 6.848,17.088 17.728,17.088 10.752,0 17.728,-6.464 17.728,-16.448 0,-10.304 -7.04,-16.832 -18.048,-16.832 z m 0.384,6.528 c 4.032,0 6.016,3.52 6.016,10.56 0,6.528 -2.112,9.984 -6.016,9.984 -4.032,0 -6.144,-3.456 -6.144,-10.112 0,-6.912 2.048,-10.432 6.144,-10.432 z" />
    </g>
  </g>
  <g
     sodipodi:insensitive="true"
     inkscape:groupmode="layer"
     id="layer2"
     inkscape:label="Text &gt; Superintendencia">
    <g
       style="font-style:normal;font-weight:normal;font-size:40px;line-height:125%;font-family:sans-serif;letter-spacing:10.5px;word-spacing:0px;white-space:pre;shape-inside:url(#rect901);fill:#00376a;fill-opacity:1;stroke:none;stroke-width:1px;stroke-linecap:butt;stroke-linejoin:miter;stroke-opacity:1"
       id="text899"
       transform="translate(23.059419,10.518492)"
       aria-label="SUPERINTENDENCIA">
      <path
         id="path914"
         style="font-style:normal;font-variant:normal;font-weight:bold;font-stretch:normal;font-family:sans-serif;-inkscape-font-specification:'sans-serif Bold';fill:#00376a;fill-opacity:1"
         d="m 29.414062,409.32227 v 6.17187 q -2.402343,-1.07422 -4.6875,-1.62109 -2.285156,-0.54688 -4.316406,-0.54688 -2.695312,0 -3.984375,0.74219 -1.289062,0.74219 -1.289062,2.30469 0,1.17187 0.859375,1.83593 0.878906,0.64454 3.164062,1.11329 l 3.203125,0.64453 q 4.863281,0.97656 6.914063,2.96875 2.050781,1.99218 2.050781,5.66406 0,4.82422 -2.871094,7.1875 -2.851562,2.34375 -8.730469,2.34375 -2.773437,0 -5.566406,-0.52734 -2.792968,-0.52735 -5.5859372,-1.5625 v -6.34766 q 2.7929692,1.48437 5.3906252,2.24609 2.617187,0.74219 5.039062,0.74219 2.460938,0 3.769531,-0.82031 1.308594,-0.82031 1.308594,-2.34375 0,-1.36719 -0.898437,-2.10938 -0.878907,-0.74218 -3.535157,-1.32812 l -2.910156,-0.64453 q -4.375,-0.9375 -6.40625,-2.98828 -2.0117185,-2.05079 -2.0117185,-5.52735 0,-4.35547 2.8125005,-6.69922 2.8125,-2.34375 8.085937,-2.34375 2.402344,0 4.941406,0.3711 2.539063,0.35156 5.253906,1.07422 z" />
      <path
         id="path916"
         style="font-style:normal;font-variant:normal;font-weight:bold;font-stretch:normal;font-family:sans-serif;-inkscape-font-specification:'sans-serif Bold';fill:#00376a;fill-opacity:1"
         d="m 48.449219,408.4043 h 7.519531 v 17.48047 q 0,3.61328 1.171875,5.17578 1.191406,1.54297 3.867187,1.54297 2.695313,0 3.867188,-1.54297 1.191406,-1.5625 1.191406,-5.17578 V 408.4043 h 7.519531 v 17.48047 q 0,6.1914 -3.105468,9.21875 -3.105469,3.02734 -9.472657,3.02734 -6.347656,0 -9.453125,-3.02734 -3.105468,-3.02735 -3.105468,-9.21875 z" />
      <path
         id="path918"
         style="font-style:normal;font-variant:normal;font-weight:bold;font-stretch:normal;font-family:sans-serif;-inkscape-font-specification:'sans-serif Bold';fill:#00376a;fill-opacity:1"
         d="m 91.449219,408.4043 h 12.480471 q 5.5664,0 8.53515,2.48047 2.98829,2.46093 2.98829,7.03125 0,4.58984 -2.98829,7.07031 -2.96875,2.46094 -8.53515,2.46094 h -4.96094 v 10.11718 h -7.519531 z m 7.519531,5.44922 v 8.14453 h 4.16016 q 2.1875,0 3.3789,-1.05469 1.19141,-1.07422 1.19141,-3.02734 0,-1.95313 -1.19141,-3.00782 -1.1914,-1.05468 -3.3789,-1.05468 z" />
      <path
         id="path920"
         style="font-style:normal;font-variant:normal;font-weight:bold;font-stretch:normal;font-family:sans-serif;-inkscape-font-specification:'sans-serif Bold';fill:#00376a;fill-opacity:1"
         d="m 131.24609,408.4043 h 20.29297 v 5.68359 h -12.77344 v 5.42969 h 12.01172 v 5.68359 h -12.01172 v 6.67969 h 13.20313 v 5.68359 h -20.72266 z" />
      <path
         id="path922"
         style="font-style:normal;font-variant:normal;font-weight:bold;font-stretch:normal;font-family:sans-serif;-inkscape-font-specification:'sans-serif Bold';fill:#00376a;fill-opacity:1"
         d="m 179.77344,421.33398 q 2.36328,0 3.3789,-0.8789 1.03516,-0.87891 1.03516,-2.89063 0,-1.99218 -1.03516,-2.85156 -1.01562,-0.85937 -3.3789,-0.85937 h -3.16407 v 7.48046 z m -3.16407,5.19532 v 11.03515 h -7.51953 V 408.4043 h 11.48438 q 5.76172,0 8.4375,1.93359 2.69531,1.93359 2.69531,6.11328 0,2.89063 -1.40625,4.7461 -1.38672,1.85546 -4.19922,2.73437 1.54297,0.35156 2.75391,1.60156 1.23047,1.23047 2.48047,3.75 l 4.08203,8.28125 h -8.00781 l -3.55469,-7.24609 q -1.07422,-2.1875 -2.1875,-2.98828 -1.09375,-0.80078 -2.92969,-0.80078 z" />
      <path
         id="path924"
         style="font-style:normal;font-variant:normal;font-weight:bold;font-stretch:normal;font-family:sans-serif;-inkscape-font-specification:'sans-serif Bold';fill:#00376a;fill-opacity:1"
         d="m 210.37109,408.4043 h 7.51953 v 29.16015 h -7.51953 z" />
      <path
         id="path926"
         style="font-style:normal;font-variant:normal;font-weight:bold;font-stretch:normal;font-family:sans-serif;-inkscape-font-specification:'sans-serif Bold';fill:#00376a;fill-opacity:1"
         d="m 235.79297,408.4043 h 8.39844 l 10.60546,20 v -20 h 7.12891 v 29.16015 h -8.39844 l -10.60547,-20 v 20 h -7.1289 z" />
      <path
         id="path928"
         style="font-style:normal;font-variant:normal;font-weight:bold;font-stretch:normal;font-family:sans-serif;-inkscape-font-specification:'sans-serif Bold';fill:#00376a;fill-opacity:1"
         d="m 276.33203,408.4043 h 26.875 v 5.68359 h -9.66797 v 23.47656 h -7.51953 v -23.47656 h -9.6875 z" />
      <path
         id="path930"
         style="font-style:normal;font-variant:normal;font-weight:bold;font-stretch:normal;font-family:sans-serif;-inkscape-font-specification:'sans-serif Bold';fill:#00376a;fill-opacity:1"
         d="m 317.57422,408.4043 h 20.29297 v 5.68359 h -12.77344 v 5.42969 h 12.01172 v 5.68359 h -12.01172 v 6.67969 h 13.20312 v 5.68359 h -20.72265 z" />
      <path
         id="path932"
         style="font-style:normal;font-variant:normal;font-weight:bold;font-stretch:normal;font-family:sans-serif;-inkscape-font-specification:'sans-serif Bold';fill:#00376a;fill-opacity:1"
         d="m 355.41797,408.4043 h 8.39844 l 10.60546,20 v -20 h 7.12891 v 29.16015 h -8.39844 l -10.60547,-20 v 20 h -7.1289 z" />
      <path
         id="path934"
         style="font-style:normal;font-variant:normal;font-weight:bold;font-stretch:normal;font-family:sans-serif;-inkscape-font-specification:'sans-serif Bold';fill:#00376a;fill-opacity:1"
         d="m 406.95312,414.08789 v 17.79297 h 2.69532 q 4.60937,0 7.03125,-2.28516 2.4414,-2.28515 2.4414,-6.64062 0,-4.33594 -2.42187,-6.60156 -2.42188,-2.26563 -7.05078,-2.26563 z m -7.51953,-5.68359 h 7.92969 q 6.64063,0 9.88281,0.95703 3.26172,0.9375 5.58594,3.20312 2.05078,1.97266 3.04688,4.55078 0.99609,2.57813 0.99609,5.83985 0,3.30078 -0.99609,5.89844 -0.9961,2.57812 -3.04688,4.55078 -2.34375,2.26562 -5.625,3.22265 -3.28125,0.9375 -9.84375,0.9375 h -7.92969 z" />
      <path
         sodipodi:nodetypes="ccccccccccccc"
         id="path936"
         style="font-style:normal;font-variant:normal;font-weight:bold;font-stretch:normal;font-family:sans-serif;-inkscape-font-specification:'sans-serif Bold';fill:#00376a;fill-opacity:1"
         d="m 440.03626,408.4043 h 20.29297 v 5.68359 h -12.77344 v 5.42969 h 12.01172 v 5.68359 h -12.01172 v 6.67969 h 13.20312 v 5.68359 h -20.72265 z" />
      <path
         sodipodi:nodetypes="ccccccccccc"
         id="path938"
         style="font-style:normal;font-variant:normal;font-weight:bold;font-stretch:normal;font-family:sans-serif;-inkscape-font-specification:'sans-serif Bold';fill:#00376a;fill-opacity:1"
         d="m 479.68018,408.4043 h 6.79817 l 9.30554,20 v -20 h 5.42869 v 29.16015 h -6.69822 l -9.30555,-20 v 20 h -5.52863 z" />
      <path
         sodipodi:nodetypes="csscscssccssssssscc"
         id="path940"
         style="font-style:normal;font-variant:normal;font-weight:bold;font-stretch:normal;font-family:sans-serif;-inkscape-font-specification:'sans-serif Bold';fill:#00376a;fill-opacity:1"
         d="m 545.12092,435.96289 c -1.38021,0.71615 -2.81901,1.25651 -4.3164,1.62109 -1.4974,0.36459 -3.0599,0.54688 -4.6875,0.54688 -4.85677,0 -8.70443,-1.35417 -11.54297,-4.0625 -2.83854,-2.72135 -4.25781,-6.40625 -4.25781,-11.05469 0,-4.66146 1.41927,-8.34636 4.25781,-11.05469 2.83854,-2.72135 6.6862,-4.08203 11.54297,-4.08203 1.6276,0 3.1901,0.18229 4.6875,0.54688 1.49739,0.36458 2.93619,0.90494 4.3164,1.62109 v 6.03516 c -1.39323,-0.95052 -2.76692,-1.64714 -4.12109,-2.08985 -1.35417,-0.44271 -2.77995,-0.66406 -4.27734,-0.66406 -2.68229,0 -4.79167,0.85938 -6.32813,2.57813 -1.53646,1.71875 -2.30469,4.08854 -2.30469,7.10937 0,3.00781 0.76823,5.3711 2.30469,7.08985 1.53646,1.71875 3.64584,2.57812 6.32813,2.57812 1.49739,0 2.92317,-0.22135 4.27734,-0.66406 1.35417,-0.44271 2.72786,-1.13932 4.12109,-2.08985 z" />
      <path
         sodipodi:nodetypes="ccccc"
         id="path942"
         style="font-style:normal;font-variant:normal;font-weight:bold;font-stretch:normal;font-family:sans-serif;-inkscape-font-specification:'sans-serif Bold';fill:#00376a;fill-opacity:1"
         d="m 562.87082,408.4043 h 7.51953 v 29.16015 h -7.51953 z" />
      <path
         sodipodi:nodetypes="ccccccccccccc"
         id="path944"
         style="font-style:normal;font-variant:normal;font-weight:bold;font-stretch:normal;font-family:sans-serif;-inkscape-font-specification:'sans-serif Bold';fill:#00376a;fill-opacity:1"
         d="m 606.18825,432.25195 h -11.75781 l -1.85547,5.3125 h -7.55859 l 10.80078,-29.16015 h 8.96484 l 10.80078,29.16015 h -7.55859 z m -9.88281,-5.41015 h 7.98828 l -3.98438,-11.60157 z" />
    </g>
  </g>
  <g
     sodipodi:insensitive="true"
     inkscape:groupmode="layer"
     id="layer5"
     inkscape:label="Text &gt; Años">
    <g
       style="font-style:normal;font-weight:normal;font-size:73.3333px;line-height:125%;font-family:sans-serif;letter-spacing:0px;word-spacing:0px;white-space:pre;shape-inside:url(#rect957);fill:#00376a;fill-opacity:1;stroke:none;stroke-width:1px;stroke-linecap:butt;stroke-linejoin:miter;stroke-opacity:1"
       id="text955"
       transform="translate(67.781617,60.377975)"
       aria-label="años">
      <path
         id="path947"
         style="font-style:normal;font-variant:normal;font-weight:normal;font-stretch:normal;font-size:73.3333px;font-family:Ubuntu;-inkscape-font-specification:Ubuntu;fill:#00376a;fill-opacity:1"
         d="m 300.03504,228.69205 q 2.42,0 4.25333,-0.0733 1.90667,-0.14667 3.15334,-0.44 v -11.36666 q -0.73334,-0.36667 -2.42,-0.58667 -1.61334,-0.29333 -3.96,-0.29333 -1.54,0 -3.3,0.22 -1.68667,0.22 -3.15333,0.95333 -1.39333,0.66 -2.34667,1.90667 -0.95333,1.17333 -0.95333,3.15333 0,3.66666 2.34667,5.13333 2.34666,1.39333 6.37999,1.39333 z m -0.58666,-34.17331 q 4.10666,0 6.89333,1.1 2.86,1.02666 4.54666,3.00666 1.76,1.90667 2.49333,4.62 0.73334,2.64 0.73334,5.86666 v 23.83332 q -0.88,0.14667 -2.49334,0.44 -1.54,0.22 -3.51999,0.44 -1.98,0.22 -4.32667,0.36667 -2.27333,0.22 -4.54666,0.22 -3.22667,0 -5.94,-0.66 -2.71333,-0.66 -4.69333,-2.05333 -1.98,-1.46667 -3.08,-3.81333 -1.1,-2.34667 -1.1,-5.64667 0,-3.15333 1.24667,-5.42666 1.32,-2.27333 3.51999,-3.66667 2.2,-1.39333 5.13334,-2.05333 2.93333,-0.66 6.15999,-0.66 1.02667,0 2.12667,0.14667 1.1,0.0733 2.05333,0.29333 1.02667,0.14667 1.76,0.29333 0.73333,0.14667 1.02667,0.22 v -1.90666 q 0,-1.68667 -0.36667,-3.3 -0.36667,-1.68667 -1.32,-2.93333 -0.95333,-1.32 -2.64,-2.05333 -1.61333,-0.80667 -4.25333,-0.80667 -3.37333,0 -5.94,0.51333 -2.49333,0.44 -3.74,0.95334 l -0.80666,-5.64667 q 1.32,-0.58666 4.4,-1.1 3.07999,-0.58666 6.67333,-0.58666 z" />
      <path
         id="path949"
         style="font-style:normal;font-variant:normal;font-weight:normal;font-stretch:normal;font-size:73.3333px;font-family:Ubuntu;-inkscape-font-specification:Ubuntu;fill:#00376a;fill-opacity:1"
         d="m 325.37055,196.57207 q 2.34667,-0.58667 6.23333,-1.24667 3.88667,-0.66 8.94666,-0.66 4.54667,0 7.55333,1.32 3.00667,1.24667 4.76667,3.59333 1.83333,2.27334 2.56666,5.5 0.73334,3.22667 0.73334,7.11333 v 21.41332 h -6.82 v -19.94665 q 0,-3.52 -0.51333,-6.01333 -0.44,-2.49334 -1.54,-4.03333 -1.1,-1.54 -2.93333,-2.2 -1.83334,-0.73334 -4.54667,-0.73334 -1.1,0 -2.27333,0.0733 -1.17333,0.0733 -2.27333,0.22 -1.02667,0.0733 -1.90667,0.22 -0.80667,0.14666 -1.17333,0.22 v 32.19331 h -6.82 z m 27.49999,-15.10666 q -0.36667,0.88 -1.02667,2.05333 -0.58666,1.17333 -1.54,2.2 -0.95333,0.95333 -2.27333,1.68667 -1.24667,0.66 -2.78667,0.66 -1.46666,0 -2.78666,-0.51334 -1.24667,-0.51333 -2.42,-1.1 -1.24667,-0.58666 -2.12667,-0.88 -0.87999,-0.29333 -1.68666,-0.29333 -1.24667,0 -2.34667,1.02667 -1.02666,1.02666 -1.61333,2.2 l -3.52,-1.76 q 0.29334,-0.88 0.95334,-2.05334 0.66,-1.17333 1.61333,-2.12666 0.95333,-1.02667 2.2,-1.68667 1.32,-0.73333 2.86,-0.73333 1.46666,0 2.71333,0.51333 1.32,0.51334 2.49333,1.1 1.24667,0.58667 2.12667,0.88 0.87999,0.29334 1.68666,0.29334 1.24667,0 2.27333,-1.02667 1.1,-1.02667 1.68667,-2.2 z" />
      <path
         id="path951"
         style="font-style:normal;font-variant:normal;font-weight:normal;font-stretch:normal;font-size:73.3333px;font-family:Ubuntu;-inkscape-font-specification:Ubuntu;fill:#00376a;fill-opacity:1"
         d="m 401.13989,214.53873 q 0,4.54666 -1.32,8.21333 -1.32,3.66666 -3.74,6.30666 -2.34666,2.64 -5.64666,4.10666 -3.3,1.39334 -7.18666,1.39334 -3.88667,0 -7.18667,-1.39334 -3.3,-1.46666 -5.71999,-4.10666 -2.34667,-2.64 -3.66667,-6.30666 -1.32,-3.66667 -1.32,-8.21333 0,-4.47333 1.32,-8.14 1.32,-3.74 3.66667,-6.38 2.41999,-2.64 5.71999,-4.03333 3.3,-1.46666 7.18667,-1.46666 3.88666,0 7.18666,1.46666 3.3,1.39333 5.64666,4.03333 2.42,2.64 3.74,6.38 1.32,3.66667 1.32,8.14 z m -7.11333,0 q 0,-6.45333 -2.93333,-10.19333 -2.86,-3.81333 -7.84666,-3.81333 -4.98667,0 -7.92,3.81333 -2.86,3.74 -2.86,10.19333 0,6.45333 2.86,10.26666 2.93333,3.74 7.92,3.74 4.98666,0 7.84666,-3.74 2.93333,-3.81333 2.93333,-10.26666 z" />
      <path
         id="path953"
         style="font-style:normal;font-variant:normal;font-weight:normal;font-stretch:normal;font-size:73.3333px;font-family:Ubuntu;-inkscape-font-specification:Ubuntu;fill:#00376a;fill-opacity:1"
         d="m 419.60842,228.69205 q 4.18,0 6.16,-1.1 2.05333,-1.1 2.05333,-3.51999 0,-2.49334 -1.98,-3.96 -1.97999,-1.46667 -6.52666,-3.3 -2.2,-0.88 -4.25333,-1.76 -1.98,-0.95333 -3.44667,-2.2 -1.46666,-1.24667 -2.34666,-3.00666 -0.88,-1.76 -0.88,-4.32667 0,-5.06 3.74,-7.99333 3.74,-3.00666 10.19333,-3.00666 1.61333,0 3.22666,0.22 1.61333,0.14666 3.00667,0.44 1.39333,0.22 2.42,0.51333 1.09999,0.29333 1.68666,0.51333 l -1.24667,5.86667 q -1.09999,-0.58667 -3.44666,-1.17334 -2.34667,-0.66 -5.64666,-0.66 -2.86,0 -4.98667,1.17334 -2.12666,1.1 -2.12666,3.51999 0,1.24667 0.44,2.2 0.51333,0.95334 1.46666,1.76 1.02667,0.73334 2.49333,1.39334 1.46667,0.66 3.52,1.39333 2.71333,1.02666 4.84,2.05333 2.12667,0.95333 3.59333,2.27333 1.54,1.32 2.34667,3.22667 0.80666,1.83333 0.80666,4.54666 0,5.28 -3.95999,7.99333 -3.88667,2.71333 -11.14667,2.71333 -5.05999,0 -7.91999,-0.88 -2.86,-0.80666 -3.88667,-1.24666 l 1.24667,-5.86667 q 1.17333,0.44 3.74,1.32 2.56666,0.88 6.81999,0.88 z" />
    </g>
  </g>
  <g
     sodipodi:insensitive="true"
     inkscape:groupmode="layer"
     id="layer3"
     inkscape:label="Square Yellow"
     style="opacity:1">
    <rect
       style="fill:#fcdb75;fill-opacity:1;stroke:none;stroke-width:2.41763"
       id="rect916"
       width="605.76617"
       height="4"
       x="30.5"
       y="404" />
  </g>
  <g
     sodipodi:insensitive="true"
     inkscape:groupmode="layer"
     id="layer4"
     inkscape:label="Number &gt; 1968 - 2018">
    <g
       style="font-style:normal;font-weight:normal;font-size:24px;line-height:125%;font-family:sans-serif;letter-spacing:0px;word-spacing:0px;white-space:pre;shape-inside:url(#rect921);fill:#0068a6;fill-opacity:1;stroke:none;stroke-width:1px;stroke-linecap:butt;stroke-linejoin:miter;stroke-opacity:1"
       id="text919"
       transform="translate(1.6252232,3.9469705)"
       aria-label="1968 - 2018">
      <path
         sodipodi:nodetypes="cccccccccccc"
         id="path956"
         style="fill:#0068a6;fill-opacity:1"
         d="m 349.77063,314.18164 h 3.86719 v -13.34766 l -4.20703,0.84375 v -2.15625 l 4.18359,-0.84375 h 2.36719 v 15.50391 h 3.86719 v 1.99219 h -10.07813 z" />
      <path
         sodipodi:nodetypes="ccssccsscssscscsscscscscscs"
         id="path958"
         style="fill:#0068a6;fill-opacity:1"
         d="m 366.21262,315.81055 v -2.15625 c 0.59375,0.28125 1.19531,0.49609 1.80469,0.64453 0.60938,0.14843 1.20703,0.22265 1.79297,0.22265 1.5625,0 2.75391,-0.52344 3.57421,-1.57031 0.82813,-1.05469 1.30079,-2.65234 1.41797,-4.79297 -0.45312,0.67188 -1.02733,1.18751 -1.72265,1.54688 -0.69531,0.35937 -1.46484,0.53906 -2.3086,0.53906 -1.75,0 -3.13671,-0.52734 -4.16015,-1.58203 -1.01562,-1.0625 -1.52344,-2.51172 -1.52344,-4.34766 0,-1.79687 0.53125,-3.23828 1.59375,-4.32422 1.0625,-1.08593 2.47657,-1.6289 4.24219,-1.6289 2.02344,0 3.5664,0.77734 4.6289,2.33203 1.07032,1.54687 1.60547,3.79687 1.60547,6.75 0,2.75781 -0.65625,4.96094 -1.96875,6.60937 -1.30468,1.64063 -3.0625,2.46094 -5.27344,2.46094 -0.59374,0 -1.1953,-0.0586 -1.80468,-0.17578 -0.60938,-0.11719 -1.24219,-0.29297 -1.89844,-0.52734 z m 4.71094,-7.41797 c 1.0625,0 1.90235,-0.36328 2.51953,-1.08985 0.625,-0.72656 0.9375,-1.72265 0.9375,-2.98828 0,-1.25781 -0.3125,-2.25 -0.9375,-2.97656 -0.61718,-0.73437 -1.45703,-1.10156 -2.51953,-1.10156 -1.0625,0 -1.90625,0.36719 -2.53125,1.10156 -0.61718,0.72656 -0.92578,1.71875 -0.92578,2.97656 0,1.26563 0.3086,2.26172 0.92578,2.98828 0.625,0.72657 1.46875,1.08985 2.53125,1.08985 z" />
      <path
         sodipodi:nodetypes="scscscscscccscccscssscscscc"
         id="path960"
         style="fill:#0068a6;fill-opacity:1"
         d="m 389.67886,306.48242 c -1.0625,0 -1.90625,0.36328 -2.53125,1.08985 -0.61719,0.72656 -0.92579,1.72265 -0.92579,2.98828 0,1.25781 0.3086,2.25391 0.92579,2.98828 0.625,0.72656 1.46875,1.08984 2.53125,1.08984 1.0625,0 1.90235,-0.36328 2.51953,-1.08984 0.625,-0.73437 0.9375,-1.73047 0.9375,-2.98828 0,-1.26563 -0.3125,-2.26172 -0.9375,-2.98828 -0.61718,-0.72657 -1.45703,-1.08985 -2.51953,-1.08985 z m 4.69921,-7.41797 v 2.15625 c -0.59374,-0.28125 -1.1953,-0.49609 -1.80468,-0.64453 -0.60156,-0.14843 -1.19922,-0.22265 -1.79297,-0.22265 -1.5625,0 -2.75781,0.52734 -3.58594,1.58203 -0.82031,1.05469 -1.28906,2.64844 -1.40625,4.78125 0.46094,-0.67969 1.03907,-1.19922 1.73438,-1.5586 0.69531,-0.36719 1.46093,-0.55078 2.29687,-0.55078 1.75782,0 3.14454,0.53516 4.16016,1.60547 1.02344,1.0625 1.53515,2.51172 1.53515,4.34766 0,1.79687 -0.53125,3.23828 -1.59375,4.32422 -1.0625,1.08593 -2.47656,1.6289 -4.24218,1.6289 -2.02344,0 -3.57031,-0.77344 -4.64063,-2.32031 -1.07031,-1.55469 -1.60547,-3.80469 -1.60547,-6.75 0,-2.76563 0.65625,-4.96875 1.96875,-6.60938 1.3125,-1.64843 3.07422,-2.47265 5.28516,-2.47265 0.59375,0 1.19141,0.0586 1.79297,0.17578 0.60938,0.11719 1.24219,0.29297 1.89843,0.52734 z" />
      <path
         sodipodi:nodetypes="scscscscsccscssscccscscsscscscscscs"
         id="path962"
         style="fill:#0068a6;fill-opacity:1"
         d="m 408.16678,307.86523 c -1.125,0 -2.01172,0.30078 -2.66016,0.90235 -0.64063,0.60156 -0.96094,1.42968 -0.96094,2.48437 0,1.05469 0.32031,1.88281 0.96094,2.48438 0.64844,0.60156 1.53516,0.90234 2.66016,0.90234 1.125,0 2.01171,-0.30078 2.66015,-0.90234 0.64844,-0.60937 0.97266,-1.4375 0.97266,-2.48438 0,-1.05469 -0.32422,-1.88281 -0.97266,-2.48437 -0.64062,-0.60157 -1.52734,-0.90235 -2.66015,-0.90235 z m -2.36719,-1.00781 c -1.01563,-0.25 -1.8086,-0.72266 -2.37891,-1.41797 -0.5625,-0.69531 -0.84375,-1.54297 -0.84375,-2.54297 0,-1.39843 0.49609,-2.5039 1.48828,-3.3164 1,-0.8125 2.36719,-1.21875 4.10157,-1.21875 1.74218,0 3.10937,0.40625 4.10156,1.21875 0.99218,0.8125 1.48828,1.91797 1.48828,3.3164 0,1 -0.28516,1.84766 -0.85547,2.54297 -0.5625,0.69531 -1.34766,1.16797 -2.35547,1.41797 1.14062,0.26563 2.02734,0.78516 2.66016,1.5586 0.64062,0.77343 0.96094,1.71874 0.96094,2.83593 0,1.69531 -0.51954,2.9961 -1.5586,3.90235 -1.03125,0.90625 -2.51172,1.35937 -4.4414,1.35937 -1.92969,0 -3.41407,-0.45312 -4.45313,-1.35937 -1.03125,-0.90625 -1.54687,-2.20704 -1.54687,-3.90235 0,-1.11719 0.32031,-2.0625 0.96093,-2.83593 0.64062,-0.77344 1.53125,-1.29297 2.67188,-1.5586 z m -0.86719,-3.73828 c 0,0.90625 0.28125,1.61328 0.84375,2.12109 0.57031,0.50781 1.36719,0.76172 2.39063,0.76172 1.01562,0 1.80858,-0.25391 2.3789,-0.76172 0.57812,-0.50781 0.86719,-1.21484 0.86719,-2.12109 0,-0.90625 -0.28907,-1.61328 -0.86719,-2.12109 -0.57032,-0.50781 -1.36328,-0.76172 -2.3789,-0.76172 -1.02344,0 -1.82032,0.25391 -2.39063,0.76172 -0.5625,0.50781 -0.84375,1.21484 -0.84375,2.12109 z" />
      <path
         sodipodi:nodetypes="ccccc"
         id="path964"
         style="fill:#0068a6;fill-opacity:1"
         d="m 422.03157,308.23909 h 6.31641 v 1.92188 h -6.31641 z" />
      <path
         sodipodi:nodetypes="cccccsccscscccsssscccc"
         id="path966"
         style="fill:#0068a6;fill-opacity:1"
         d="m 438.37774,314.18164 h 8.26172 v 1.99219 h -11.10937 v -1.99219 c 0.89844,-0.92969 2.12109,-2.17578 3.66797,-3.73828 1.55469,-1.57031 2.53125,-2.58203 2.92968,-3.03516 0.75782,-0.85156 1.28516,-1.57031 1.58204,-2.15625 0.30469,-0.59375 0.45703,-1.17578 0.45703,-1.74609 0,-0.92969 -0.32812,-1.6875 -0.98438,-2.27344 -0.64843,-0.58593 -1.49609,-0.8789 -2.54297,-0.8789 -0.74218,0 -1.52734,0.1289 -2.35547,0.38671 -0.8203,0.25781 -1.69921,0.64844 -2.63671,1.17188 v -2.39063 c 0.95312,-0.38281 1.84375,-0.67187 2.67187,-0.86718 0.82813,-0.19531 1.58594,-0.29297 2.27344,-0.29297 1.8125,0 3.25782,0.45312 4.33594,1.35937 1.07812,0.90625 1.61718,2.11719 1.61718,3.63282 0,0.71875 -0.13671,1.40234 -0.41015,2.05078 -0.26562,0.64062 -0.75391,1.39843 -1.46485,2.27343 -0.19531,0.22657 -0.8164,0.88282 -1.86328,1.96875 -1.04687,1.07813 -2.52343,2.58985 -4.42969,4.53516 z" />
      <path
         sodipodi:nodetypes="scscscscsscscscscs"
         id="path968"
         style="fill:#0068a6;fill-opacity:1"
         d="m 458.78277,300.23633 c -1.21874,0 -2.13671,0.60156 -2.7539,1.80469 -0.60938,1.19531 -0.91407,2.99609 -0.91407,5.40234 0,2.39844 0.30469,4.19922 0.91407,5.40234 0.61719,1.19531 1.53516,1.79297 2.7539,1.79297 1.22657,0 2.14454,-0.59766 2.75391,-1.79297 0.61719,-1.20312 0.92578,-3.0039 0.92578,-5.40234 0,-2.40625 -0.30859,-4.20703 -0.92578,-5.40234 -0.60937,-1.20313 -1.52734,-1.80469 -2.75391,-1.80469 z m 0,-1.875 c 1.96094,0 3.45704,0.77734 4.48828,2.33203 1.03907,1.54687 1.5586,3.79687 1.5586,6.75 0,2.94531 -0.51953,5.19531 -1.5586,6.75 -1.03124,1.54687 -2.52734,2.32031 -4.48828,2.32031 -1.96093,0 -3.46093,-0.77344 -4.5,-2.32031 -1.03124,-1.55469 -1.54687,-3.80469 -1.54687,-6.75 0,-2.95313 0.51563,-5.20313 1.54687,-6.75 1.03907,-1.55469 2.53907,-2.33203 4.5,-2.33203 z" />
      <path
         sodipodi:nodetypes="cccccccccccc"
         id="path970"
         style="fill:#0068a6;fill-opacity:1"
         d="m 473.21164,314.18164 h 3.86719 v -13.34766 l -4.20704,0.84375 v -2.15625 l 4.1836,-0.84375 h 2.36719 v 15.50391 h 3.86718 v 1.99219 h -10.07812 z" />
      <path
         sodipodi:nodetypes="scscscscsccscssscccscscsscscscscscs"
         id="path972"
         style="fill:#0068a6;fill-opacity:1"
         d="m 493.84478,307.86523 c -1.125,0 -2.01172,0.30078 -2.66015,0.90235 -0.64063,0.60156 -0.96094,1.42968 -0.96094,2.48437 0,1.05469 0.32031,1.88281 0.96094,2.48438 0.64843,0.60156 1.53515,0.90234 2.66015,0.90234 1.125,0 2.01172,-0.30078 2.66016,-0.90234 0.64843,-0.60937 0.97265,-1.4375 0.97265,-2.48438 0,-1.05469 -0.32422,-1.88281 -0.97265,-2.48437 -0.64063,-0.60157 -1.52735,-0.90235 -2.66016,-0.90235 z m -2.36719,-1.00781 c -1.01562,-0.25 -1.80859,-0.72266 -2.3789,-1.41797 -0.5625,-0.69531 -0.84375,-1.54297 -0.84375,-2.54297 0,-1.39843 0.49609,-2.5039 1.48828,-3.3164 1,-0.8125 2.36718,-1.21875 4.10156,-1.21875 1.74218,0 3.10937,0.40625 4.10156,1.21875 0.99219,0.8125 1.48829,1.91797 1.48829,3.3164 0,1 -0.28516,1.84766 -0.85547,2.54297 -0.5625,0.69531 -1.34766,1.16797 -2.35547,1.41797 1.14062,0.26563 2.02734,0.78516 2.66015,1.5586 0.64062,0.77343 0.96094,1.71874 0.96094,2.83593 0,1.69531 -0.51953,2.9961 -1.55859,3.90235 -1.03126,0.90625 -2.51173,1.35937 -4.44141,1.35937 -1.92969,0 -3.41406,-0.45312 -4.45312,-1.35937 -1.03126,-0.90625 -1.54688,-2.20704 -1.54688,-3.90235 0,-1.11719 0.32031,-2.0625 0.96094,-2.83593 0.64062,-0.77344 1.53125,-1.29297 2.67187,-1.5586 z m -0.86718,-3.73828 c 0,0.90625 0.28125,1.61328 0.84375,2.12109 0.57031,0.50781 1.36718,0.76172 2.39062,0.76172 1.01562,0 1.80859,-0.25391 2.37891,-0.76172 0.57812,-0.50781 0.86719,-1.21484 0.86719,-2.12109 0,-0.90625 -0.28907,-1.61328 -0.86719,-2.12109 -0.57032,-0.50781 -1.36329,-0.76172 -2.37891,-0.76172 -1.02344,0 -1.82031,0.25391 -2.39062,0.76172 -0.5625,0.50781 -0.84375,1.21484 -0.84375,2.12109 z" />
    </g>
  </g>
  <g
     sodipodi:insensitive="true"
     style="display:inline;opacity:1"
     inkscape:label="Number &gt; 0 Exterior"
     id="layer7"
     inkscape:groupmode="layer">
    <path
       sodipodi:nodetypes="sccsscsssssc"
       d="m 379.35352,33.554688 c -55.22848,0 -100,44.771526 -100,100.000002 10.53802,52.4379 48.73413,99.60524 100,100 55.22847,0 100,-44.77153 100,-100 0,-55.228476 -44.77152,-100.000002 -100,-100.000002 z m -0.0274,32 h 0.0274 c 37.55536,0 68,30.444638 68,68.000002 0,37.55536 -30.44464,68 -68,68 -37.55536,0 -68,-30.44464 -68,-68 0,-37.544686 30.42797,-67.984901 67.97265,-68.000002 z"
       style="fill:#066aa8;fill-opacity:0.996078;stroke-width:3.69863"
       id="path976" />
  </g>
  <g
     sodipodi:insensitive="true"
     style="opacity:1"
     inkscape:label="Logo I - Circle"
     id="layer9"
     inkscape:groupmode="layer">
    <path
       d="m 379.0332,78.572266 a 54.983097,54.983097 0 0 0 -54.66211,54.982424 54.983097,54.983097 0 0 0 18.77149,41.37304 v -43.98437 h 33.79687 v 57.54102 a 54.983097,54.983097 0 0 0 2.41407,0.0527 54.983097,54.983097 0 0 0 47.94921,-28.07227 31.5,31.5 0 0 1 -7.89648,1.00586 31.5,31.5 0 0 1 -31.5,-31.5 31.5,31.5 0 0 1 31.5,-31.499997 31.5,31.5 0 0 1 2.35547,0.08789 54.983097,54.983097 0 0 0 -42.4082,-19.986328 54.983097,54.983097 0 0 0 -0.32032,0 z m -18.90625,15.523437 a 15,15 0 0 1 15,14.999997 15,15 0 0 1 -15,15 15,15 0 0 1 -15,-15 15,15 0 0 1 15,-14.999997 z"
       style="fill:#f9b605;fill-opacity:0.996078;stroke:#ffffff;stroke-width:2;stroke-opacity:1"
       id="path989" />
  </g>
  <g
     inkscape:groupmode="layer"
     id="layer6"
     inkscape:label="Number &gt; 5"
     style="opacity:1;filter:url(#filter984)">
    <g
       aria-label="5"
       transform="translate(130.56583,-32.916549)"
       id="text970"
       style="font-style:normal;font-weight:normal;font-size:360px;line-height:125%;font-family:sans-serif;letter-spacing:0px;word-spacing:0px;white-space:pre;shape-inside:url(#rect972);fill:#0e3e6e;fill-opacity:1;stroke:none;stroke-width:1px;stroke-linecap:butt;stroke-linejoin:miter;stroke-opacity:1">
      <path
         d="m 60.085044,197.53383 44.977706,2.29576 c 7.44734,-2.11873 9.56002,-2.76339 20.33442,-2.10104 24.58257,1.5112 61.08728,20.66535 61.037,68.188 -0.0348,32.90362 -34.58737,60.11818 -60.5,59.5 -55.053607,-1.31338 -67.402799,-44.08817 -68.291331,-70.77339 l -31.453153,30.50257 c 17.123398,43.78298 57.257584,73.77082 99.744484,73.77082 42.4869,0 94,-39.72 94,-93 0,-52.2 -39.09683,-102.408 -87.69683,-102.408 -12.24,0 -12.2688,-0.019 -29.31433,0.97997 l 3.75416,-39.77997 h 51.257 c 9.8849,-22.37957 28.583,-36.499998 28.583,-36.499998 H 70.677344 Z"
         style="font-style:normal;font-variant:normal;font-weight:600;font-stretch:normal;font-size:360px;font-family:'URW Gothic L';-inkscape-font-specification:'URW Gothic L Semi-Bold';fill:#0e3e6e;fill-opacity:1;stroke:none"
         id="path978"
         sodipodi:nodetypes="ccssscczsscccccc" />
    </g>
  </g>
</svg>
